<svg width="2469" height="1162" xmlns="http://www.w3.org/2000/svg" xmlns:xlink="http://www.w3.org/1999/xlink" xml:space="preserve" overflow="hidden"><defs><clipPath id="clip0"><rect x="957" y="636" width="2469" height="1162"/></clipPath></defs><g clip-path="url(#clip0)" transform="translate(-957 -636)"><path d="M1757.89 1517.18 2055.71 1517.18 2039.42 1553.06C1982.75 1668.33 1897.87 1758.73 1789.5 1787.9L1757.89 1793.91ZM1374.5 1517.18 1707.09 1517.18 1707.09 1797.66 1702.47 1797.67C1671.99 1796.58 1640.08 1790.94 1606.8 1780.16 1534.3 1756.67 1533.95 1756.28 1465.72 1779.97 1438.47 1789.43 1412.09 1795.12 1386.64 1797.43L1374.5 1798ZM1023.59 1517.18 1323.7 1517.18 1323.7 1795.92 1313.14 1794.56C1193.03 1773.68 1098.62 1674.46 1037.27 1547.67ZM2155.05 1358.74C2159.07 1359.21 2162.84 1360.21 2166.38 1361.75 2169.92 1363.28 2173.23 1365.46 2176.3 1368.29 2179.13 1371.36 2181.31 1374.66 2182.85 1378.2 2184.38 1381.74 2185.15 1385.51 2185.15 1389.53 2185.15 1393.77 2184.38 1397.66 2182.85 1401.2 2181.31 1404.74 2179.13 1407.93 2176.3 1410.76 2173.23 1413.59 2169.92 1415.65 2166.38 1416.95 2162.84 1418.25 2159.07 1418.9 2155.05 1418.9 2150.8 1418.9 2146.91 1418.25 2143.37 1416.95 2139.83 1415.65 2136.64 1413.59 2133.81 1410.76 2130.74 1407.93 2128.5 1404.74 2127.08 1401.2 2125.67 1397.66 2124.96 1393.77 2124.96 1389.53 2124.96 1385.51 2125.67 1381.74 2127.08 1378.2 2128.5 1374.66 2130.74 1371.36 2133.81 1368.29 2136.64 1365.46 2139.83 1363.28 2143.37 1361.75 2146.91 1360.21 2150.8 1359.45 2155.05 1359.45ZM2914.19 1204.1C2903.33 1204.1 2893.65 1206.22 2885.16 1210.47 2876.66 1214.71 2869.34 1220.96 2863.21 1229.22 2857.3 1237.48 2852.82 1247.39 2849.75 1258.95 2848.22 1264.73 2847.07 1270.89 2846.3 1277.44L2845.17 1297.89 2846.21 1319.24C2846.92 1326.05 2847.98 1332.43 2849.4 1338.39 2852.23 1350.3 2856.6 1360.39 2862.5 1368.65 2868.4 1377.14 2875.48 1383.45 2883.74 1387.58 2892 1391.71 2901.44 1393.77 2912.07 1393.77 2922.92 1393.77 2932.54 1391.77 2940.92 1387.76 2949.3 1383.75 2956.44 1377.73 2962.34 1369.71 2968.48 1361.45 2973.02 1351.6 2975.97 1340.16 2978.92 1328.72 2980.4 1315.57 2980.4 1300.7 2980.4 1285.37 2978.92 1271.8 2975.97 1260.01 2973.02 1248.21 2968.72 1238.07 2963.05 1229.57 2957.15 1221.08 2950.13 1214.71 2941.98 1210.47 2933.84 1206.22 2924.58 1204.1 2914.19 1204.1ZM3056 1180.39 3171.07 1180.39 3171.07 1210.82 3157.97 1210.82C3155.14 1211.29 3152.84 1211.7 3151.07 1212.06 3149.3 1212.41 3147.94 1212.83 3147 1213.3 3146.05 1214 3145.35 1214.89 3144.87 1215.95 3144.4 1217.01 3144.17 1218.37 3144.17 1220.02 3144.17 1220.49 3144.17 1221.08 3144.17 1221.79 3144.17 1222.5 3144.28 1223.21 3144.52 1223.91 3144.76 1224.62 3145.11 1225.68 3145.58 1227.1 3146.05 1228.51 3146.64 1230.16 3147.35 1232.05L3183.47 1341.4 3223.12 1232.05C3222.89 1231.82 3222.65 1231.46 3222.41 1230.99 3222.18 1230.52 3221.94 1229.93 3221.71 1229.22 3221.47 1228.51 3221.23 1227.86 3221 1227.27 3220.76 1226.69 3220.64 1226.15 3220.64 1225.68 3219.7 1223.56 3218.64 1221.61 3217.46 1219.84 3216.28 1218.07 3215.1 1216.6 3213.92 1215.42 3212.74 1214.24 3211.03 1213.3 3208.78 1212.59 3206.54 1211.88 3203.77 1211.53 3200.46 1211.53L3190.9 1210.82 3190.9 1180.39 3314.12 1180.39 3314.12 1210.82 3301.37 1210.82C3297.59 1211.29 3294.47 1211.7 3291.99 1212.06 3289.51 1212.41 3287.68 1212.94 3286.5 1213.65 3285.32 1214.36 3284.43 1215.3 3283.84 1216.48 3283.25 1217.66 3282.96 1219.19 3282.96 1221.08 3282.96 1221.55 3282.96 1222.14 3282.96 1222.85 3282.96 1223.56 3283.08 1224.38 3283.31 1225.33 3283.55 1226.27 3283.84 1227.27 3284.2 1228.34 3284.55 1229.4 3284.96 1230.64 3285.44 1232.05L3322.61 1341.4 3359.44 1231.34C3359.91 1230.4 3360.32 1229.46 3360.68 1228.51 3361.03 1227.57 3361.32 1226.63 3361.56 1225.68 3361.8 1224.74 3361.97 1223.91 3362.09 1223.21 3362.21 1222.5 3362.27 1221.79 3362.27 1221.08 3362.27 1219.19 3362.03 1217.6 3361.56 1216.3 3361.09 1215.01 3360.26 1214 3359.08 1213.3 3358.14 1212.83 3356.37 1212.41 3353.77 1212.06 3351.17 1211.7 3347.87 1211.53 3343.86 1211.53L3333.94 1210.82 3333.94 1180.39 3426 1180.39 3426 1210.82 3421.4 1210.82C3419.27 1211.29 3417.38 1211.7 3415.73 1212.06 3414.08 1212.41 3412.66 1212.94 3411.48 1213.65 3410.3 1214.36 3409.12 1215.42 3407.94 1216.84 3406.76 1218.25 3405.58 1220.02 3404.4 1222.14 3403.93 1223.09 3403.4 1224.15 3402.81 1225.33 3402.22 1226.51 3401.69 1227.81 3401.22 1229.22 3400.51 1230.64 3399.86 1232.05 3399.27 1233.47 3398.68 1234.88 3398.15 1236.53 3397.68 1238.42L3333.94 1416.42 3288.62 1416.42 3243.3 1283.36 3195.51 1416.42 3149.12 1416.42 3086.45 1237.71C3086.22 1237.24 3085.92 1236.65 3085.57 1235.94 3085.21 1235.24 3084.8 1234.53 3084.33 1233.82 3084.09 1233.35 3083.92 1232.94 3083.8 1232.58 3083.68 1232.23 3083.62 1231.82 3083.62 1231.34 3083.39 1231.11 3083.21 1230.75 3083.09 1230.28 3082.97 1229.81 3082.91 1229.46 3082.91 1229.22 3081.5 1226.15 3080.08 1223.5 3078.66 1221.26 3077.25 1219.02 3075.6 1217.19 3073.71 1215.77 3072.06 1214.36 3069.69 1213.3 3066.63 1212.59 3063.56 1211.88 3060.02 1211.53 3056 1211.53ZM2477.5 1180.39 2607.8 1180.39 2607.8 1209.76 2592.57 1209.76C2589.03 1210.23 2586.02 1210.82 2583.54 1211.53 2581.06 1212.24 2579.12 1213.18 2577.7 1214.36 2576.28 1215.54 2575.22 1217.19 2574.51 1219.31 2573.81 1221.44 2573.45 1224.03 2573.45 1227.1L2573.45 1277.7 2667.63 1277.7 2667.63 1226.39C2667.63 1223.8 2667.28 1221.44 2666.57 1219.31 2665.86 1217.19 2664.8 1215.54 2663.38 1214.36 2661.97 1213.18 2660.02 1212.24 2657.54 1211.53 2655.06 1210.82 2652.05 1210.47 2648.51 1210.47L2633.29 1209.76 2633.29 1180.39 2763.58 1180.39 2763.58 1209.76 2745.17 1209.76C2741.63 1210.23 2738.62 1210.82 2736.14 1211.53 2733.67 1212.24 2731.72 1213.18 2730.3 1214.36 2728.88 1215.54 2727.82 1217.19 2727.11 1219.31 2726.41 1221.44 2726.05 1224.03 2726.05 1227.1L2726.05 1370.77C2726.05 1374.07 2726.41 1376.84 2727.11 1379.09 2727.82 1381.33 2728.88 1383.04 2730.3 1384.22 2731.72 1385.63 2733.67 1386.64 2736.14 1387.23 2738.62 1387.81 2741.63 1388.11 2745.17 1388.11L2763.58 1387.4 2763.58 1416.42 2633.29 1416.42 2633.29 1387.4 2648.51 1387.4C2648.98 1387.64 2649.46 1387.76 2649.93 1387.76 2650.4 1387.76 2650.75 1387.76 2650.99 1387.76 2653.82 1387.76 2656.3 1387.46 2658.43 1386.87 2660.55 1386.28 2662.2 1385.4 2663.38 1384.22 2664.8 1383.04 2665.86 1381.39 2666.57 1379.26 2667.28 1377.14 2667.63 1374.54 2667.63 1371.48L2667.63 1309.9 2573.45 1309.9 2573.45 1370.77C2573.45 1374.07 2573.81 1376.84 2574.51 1379.09 2575.22 1381.33 2576.28 1383.04 2577.7 1384.22 2579.12 1385.63 2581.06 1386.64 2583.54 1387.23 2586.02 1387.81 2589.03 1388.11 2592.57 1388.11L2607.8 1387.4 2607.8 1416.42 2477.5 1416.42 2477.5 1387.4 2495.91 1387.4C2496.38 1387.64 2496.86 1387.76 2497.33 1387.76 2497.8 1387.76 2498.15 1387.76 2498.39 1387.76 2501.22 1387.76 2503.7 1387.46 2505.83 1386.87 2507.95 1386.28 2509.6 1385.4 2510.78 1384.22 2512.2 1383.04 2513.26 1381.39 2513.97 1379.26 2514.68 1377.14 2515.03 1374.54 2515.03 1371.48L2515.03 1226.39C2515.03 1223.8 2514.68 1221.44 2513.97 1219.31 2513.26 1217.19 2512.2 1215.54 2510.78 1214.36 2509.37 1213.18 2507.42 1212.24 2504.94 1211.53 2502.46 1210.82 2499.45 1210.47 2495.91 1210.47L2477.5 1209.76ZM1810.63 1180.39 1810.63 1209.76 1829.04 1210.47C1832.58 1210.47 1835.59 1210.82 1838.06 1211.53 1840.54 1212.24 1842.49 1213.18 1843.91 1214.36 1845.32 1215.54 1846.39 1217.19 1847.09 1219.31 1847.8 1221.44 1848.16 1223.8 1848.16 1226.39L1848.16 1371.48C1848.16 1374.54 1847.8 1377.14 1847.09 1379.26 1846.39 1381.39 1845.32 1383.04 1843.91 1384.22 1842.73 1385.4 1841.07 1386.28 1838.95 1386.87 1836.83 1387.46 1834.35 1387.76 1831.51 1387.76 1831.28 1387.76 1830.92 1387.76 1830.45 1387.76 1829.98 1387.76 1829.51 1387.64 1829.04 1387.4L1810.63 1387.4 1810.63 1416.42 2042.89 1416.42 2042.89 1312.74 2009.25 1313.44C2009.02 1323.59 2008.19 1333.02 2006.78 1341.75 2005.36 1350.48 2003.35 1358.38 2000.76 1365.46 1997.92 1372.54 1992.79 1377.85 1985.35 1381.39 1977.92 1384.92 1967.95 1386.46 1955.44 1385.99L1906.58 1385.99 1906.58 1227.1C1906.58 1224.03 1906.93 1221.44 1907.64 1219.31 1908.35 1217.19 1909.41 1215.54 1910.82 1214.36 1912.24 1213.18 1914.19 1212.24 1916.67 1211.53 1919.15 1210.82 1922.16 1210.23 1925.7 1209.76L1946.94 1209.76 1946.94 1180.39ZM2913.84 1173.66C2933.43 1173.66 2951.13 1176.49 2966.95 1182.16 2982.76 1187.82 2996.69 1196.31 3008.73 1207.63 3020.76 1218.96 3029.85 1231.99 3035.99 1246.74 3042.12 1261.48 3045.19 1277.94 3045.19 1296.1 3045.19 1316.39 3042.24 1334.44 3036.34 1350.25 3030.44 1366.05 3021.59 1379.5 3009.79 1390.59 2998.22 1401.91 2984.18 1410.29 2967.65 1415.71 2951.13 1421.14 2932.37 1423.85 2911.36 1423.85 2891.29 1423.85 2873.41 1421.14 2857.72 1415.71 2842.02 1410.29 2828.27 1402.03 2816.47 1390.94 2804.9 1379.85 2796.17 1366.7 2790.27 1351.48 2784.37 1336.27 2781.42 1319.1 2781.42 1300L2781.42 1299.29C2781.42 1280.18 2784.37 1262.96 2790.27 1247.62 2796.17 1232.29 2805.14 1218.96 2817.18 1207.63 2828.98 1196.31 2842.96 1187.82 2859.13 1182.16 2875.3 1176.49 2893.54 1173.66 2913.84 1173.66ZM2345.26 1173.66C2352.34 1173.66 2359.07 1174.13 2365.44 1175.08 2371.82 1176.02 2377.84 1177.44 2383.5 1179.32 2388.93 1180.98 2394.24 1183.34 2399.43 1186.4 2404.63 1189.47 2409.58 1193.01 2414.31 1197.02L2419.62 1180.39 2447.23 1180.39 2447.23 1265.32 2414.31 1265.32C2414.07 1265.32 2413.95 1265.26 2413.95 1265.14 2413.95 1265.02 2413.95 1264.84 2413.95 1264.61 2413.95 1264.37 2413.95 1264.2 2413.95 1264.08 2413.95 1263.96 2413.95 1263.78 2413.95 1263.55 2413.95 1263.55 2413.95 1263.49 2413.95 1263.37 2413.95 1263.25 2413.95 1263.07 2413.95 1262.84 2413.72 1261.66 2413.48 1260.48 2413.24 1259.3 2413.01 1258.12 2412.89 1256.94 2412.89 1255.76 2412.65 1254.82 2412.42 1253.87 2412.18 1252.93 2411.95 1251.99 2411.71 1251.04 2411.47 1250.1 2411.24 1248.21 2410.77 1246.5 2410.06 1244.97 2409.35 1243.43 2408.64 1241.84 2407.93 1240.19 2407.7 1239.72 2407.4 1239.19 2407.05 1238.6 2406.69 1238.01 2406.28 1237.36 2405.81 1236.65 2405.57 1236.18 2405.34 1235.77 2405.1 1235.41 2404.86 1235.06 2404.75 1234.76 2404.75 1234.53 2404.51 1234.06 2404.27 1233.64 2404.04 1233.29 2403.8 1232.94 2403.57 1232.64 2403.33 1232.41 2400.5 1228.4 2397.19 1224.8 2393.42 1221.61 2389.64 1218.43 2385.39 1215.54 2380.67 1212.94 2375.95 1210.35 2371.11 1208.28 2366.15 1206.75 2361.2 1205.22 2356.12 1204.33 2350.93 1204.1 2350.69 1204.1 2350.4 1204.1 2350.04 1204.1 2349.69 1204.1 2349.28 1204.1 2348.8 1204.1 2348.57 1204.1 2348.39 1204.1 2348.27 1204.1 2348.15 1204.1 2348.1 1204.1 2348.1 1204.1 2347.86 1204.1 2347.68 1204.1 2347.56 1204.1 2347.45 1204.1 2347.27 1204.1 2347.03 1204.1 2339.95 1204.1 2333.52 1204.86 2327.74 1206.4 2321.95 1207.93 2316.82 1210.11 2312.34 1212.94 2307.85 1215.77 2304.55 1219.08 2302.42 1222.85 2300.3 1226.63 2299.24 1230.87 2299.24 1235.59 2299.24 1240.78 2300.59 1245.2 2303.31 1248.86 2306.02 1252.52 2310.09 1255.41 2315.52 1257.53 2320.95 1259.65 2326.97 1261.6 2333.58 1263.37 2340.19 1265.14 2347.27 1266.73 2354.82 1268.15 2356.71 1268.38 2358.6 1268.68 2360.49 1269.03 2362.38 1269.39 2364.26 1269.8 2366.15 1270.27 2367.1 1270.51 2368.04 1270.74 2368.99 1270.98 2369.93 1271.21 2370.99 1271.33 2372.17 1271.33 2373.12 1271.57 2374.12 1271.8 2375.18 1272.04 2376.24 1272.28 2377.25 1272.51 2378.19 1272.75 2387.87 1274.87 2397.25 1277.7 2406.34 1281.24 2415.43 1284.78 2423.98 1288.91 2432.01 1293.63 2440.27 1298.34 2446.47 1304.95 2450.6 1313.44 2454.73 1321.94 2456.79 1332.32 2456.79 1344.58 2456.79 1357.56 2454.67 1368.94 2450.42 1378.73 2446.17 1388.52 2439.92 1396.84 2431.65 1403.68 2423.16 1410.29 2412.95 1415.3 2401.03 1418.72 2389.11 1422.14 2375.36 1423.85 2359.78 1423.85 2359.07 1423.85 2358.42 1423.85 2357.83 1423.85 2357.24 1423.85 2356.71 1423.85 2356.24 1423.85 2356 1423.85 2355.71 1423.85 2355.35 1423.85 2355 1423.85 2354.71 1423.85 2354.47 1423.85 2354 1423.61 2353.64 1423.5 2353.41 1423.5 2353.17 1423.5 2352.93 1423.5 2352.7 1423.5 2346.33 1423.26 2340.13 1422.55 2334.11 1421.37 2328.09 1420.19 2322.01 1418.54 2315.88 1416.42 2309.98 1414.53 2304.37 1412.06 2299.06 1408.99 2293.75 1405.92 2288.73 1402.26 2284.01 1398.02L2276.58 1416.42 2248.6 1416.42 2248.6 1328.66 2281.89 1328.66C2282.36 1331.25 2282.89 1333.61 2283.48 1335.74 2284.07 1337.86 2284.48 1339.75 2284.72 1341.4 2284.95 1342.11 2285.19 1342.87 2285.43 1343.7 2285.66 1344.52 2285.9 1345.29 2286.13 1346 2286.13 1346.71 2286.25 1347.36 2286.49 1347.95 2286.72 1348.54 2286.96 1349.07 2287.2 1349.54 2287.67 1350.72 2288.08 1351.84 2288.44 1352.9 2288.79 1353.96 2289.09 1354.85 2289.32 1355.55 2289.79 1356.5 2290.27 1357.32 2290.74 1358.03 2291.21 1358.74 2291.68 1359.45 2292.15 1360.15 2292.39 1360.63 2292.63 1361.04 2292.86 1361.39 2293.1 1361.75 2293.33 1362.16 2293.57 1362.63 2293.81 1362.87 2293.98 1363.1 2294.1 1363.34 2294.22 1363.57 2294.4 1363.69 2294.63 1363.69 2294.87 1363.93 2295.05 1364.16 2295.16 1364.4 2295.28 1364.64 2295.46 1364.87 2295.69 1365.11 2298.53 1368.88 2302.13 1372.36 2306.49 1375.55 2310.86 1378.73 2315.99 1381.62 2321.9 1384.22 2327.56 1386.58 2333.46 1388.4 2339.6 1389.7 2345.74 1391 2351.99 1391.65 2358.36 1391.65 2364.97 1391.65 2370.93 1390.94 2376.24 1389.53 2381.55 1388.11 2386.33 1385.99 2390.58 1383.16 2394.83 1380.32 2398.02 1377.08 2400.14 1373.42 2402.27 1369.77 2403.33 1365.7 2403.33 1361.22 2403.33 1357.91 2402.98 1355.08 2402.27 1352.72 2401.56 1350.36 2400.61 1348.36 2399.43 1346.71 2398.02 1344.82 2395.95 1343.11 2393.24 1341.58 2390.52 1340.04 2387.04 1338.57 2382.79 1337.15 2381.14 1336.68 2379.25 1336.15 2377.13 1335.56 2375 1334.97 2372.76 1334.32 2370.4 1333.61 2368.04 1333.14 2365.56 1332.55 2362.97 1331.84 2360.37 1331.14 2357.66 1330.43 2354.82 1329.72L2319.06 1320.52C2308.91 1318.63 2299.71 1316.04 2291.45 1312.74 2283.18 1309.43 2275.75 1305.54 2269.14 1301.06 2262.53 1296.57 2257.57 1290.26 2254.27 1282.12 2250.96 1273.99 2249.31 1264.14 2249.31 1252.58 2249.31 1240.54 2251.44 1229.69 2255.69 1220.02 2259.93 1210.35 2266.43 1201.97 2275.16 1194.9 2283.89 1187.82 2294.1 1182.51 2305.79 1178.97 2317.47 1175.43 2330.63 1173.66 2345.26 1173.66ZM1757.89 1128.17 2117.03 1128.17 2119.64 1158.3C2124.01 1247.17 2112.44 1342.08 2086.51 1430.84L2075.07 1466.4 1757.89 1466.4ZM1374.5 1128.17 1707.09 1128.17 1707.09 1466.4 1374.5 1466.4ZM960.544 1128.17 1323.7 1128.17 1323.7 1466.4 1003.74 1466.4 991.178 1427.48C962.07 1328.61 950.866 1223.46 960.229 1130.4ZM1190.76 850.837C1222.04 850.188 1256.68 855.277 1294.81 867.008L1323.7 876.938 1323.7 1077.4 968.384 1077.4 976.546 1042.05C1007.71 931.442 1077.01 853.197 1190.76 850.837ZM1707.09 809.754 1707.09 1077.4 1374.5 1077.4 1374.5 899.214 1386.56 904.994C1408.28 916.096 1430.9 929.027 1454.43 943.903 1534.37 886.612 1606.44 846.881 1671 821.984ZM1842.5 789.066C1990.38 795.121 2075.36 907.556 2106.64 1055.33L2110.33 1077.4 1757.89 1077.4 1757.89 796.47 1762.25 795.423C1790.82 790.05 1817.55 788.044 1842.5 789.066ZM1271.12 636 1440.01 636C1452.24 636 1459.97 640.724 1463.18 650.171 1465.54 657.118 1457.87 737.976 1440.16 892.747 1319.88 737.698 1258.7 657.118 1256.62 651.005 1255.02 646.281 1255.96 642.53 1259.47 639.751 1262.51 637.25 1266.39 636 1271.12 636Z" fill="#24A148" fill-rule="evenodd"/></g></svg>