<svg width="2469" height="1162" xmlns="http://www.w3.org/2000/svg" xmlns:xlink="http://www.w3.org/1999/xlink" xml:space="preserve" overflow="hidden"><defs><clipPath id="clip0"><rect x="957" y="636" width="2469" height="1162"/></clipPath></defs><g clip-path="url(#clip0)" transform="translate(-957 -636)"><path d="M1810 1181 1947 1181 1947 1210 1946.84 1210 1946.84 1183 1810.06 1183 1810.06 1210 1810 1210 1810 1181Z" fill="#24A148" fill-rule="evenodd"/><path d="M1128.01 1183 1181.69 1183 1255.15 1351.76C1255.62 1352.94 1255.97 1353.94 1256.21 1354.76 1256.44 1355.58 1256.8 1356.34 1257.27 1357.05 1257.5 1357.99 1257.8 1358.81 1258.15 1359.51 1258.5 1360.22 1258.8 1360.92 1259.03 1361.63 1259.5 1362.33 1259.86 1363.04 1260.09 1363.74 1260.33 1364.45 1260.68 1365.15 1261.15 1365.86 1261.39 1366.56 1261.68 1367.21 1262.04 1367.79 1262.39 1368.38 1262.68 1368.91 1262.92 1369.38 1264.8 1372.9 1266.86 1375.96 1269.1 1378.54 1271.33 1381.12 1273.63 1383.12 1275.98 1384.53 1278.57 1386.17 1281.81 1387.35 1285.7 1388.05 1289.58 1388.76 1294.35 1389.11 1300 1389.11L1300 1418 1169.33 1418 1169.33 1388.4 1181.69 1388.4C1182.16 1388.64 1182.52 1388.76 1182.75 1388.76 1182.99 1388.76 1183.34 1388.76 1183.81 1388.76 1184.05 1388.76 1184.34 1388.76 1184.69 1388.76 1185.05 1388.76 1185.34 1388.76 1185.58 1388.76 1188.17 1388.76 1190.4 1388.58 1192.29 1388.23 1194.17 1387.88 1195.82 1387.47 1197.23 1387 1198.88 1386.29 1200.11 1385.35 1200.94 1384.18 1201.76 1383 1202.17 1381.59 1202.17 1379.95 1202.17 1378.77 1202.06 1377.54 1201.82 1376.25 1201.59 1374.96 1201.23 1373.49 1200.76 1371.85 1200.29 1370.44 1199.76 1368.97 1199.17 1367.44 1198.58 1365.91 1198.05 1364.33 1197.58 1362.69 1197.35 1362.22 1197.11 1361.75 1196.88 1361.28 1196.64 1360.81 1196.41 1360.34 1196.17 1359.87 1195.94 1359.4 1195.7 1358.93 1195.46 1358.46 1195.23 1357.99 1194.99 1357.4 1194.76 1356.7 1194.29 1355.52 1193.82 1354.41 1193.35 1353.35 1192.87 1352.29 1192.4 1351.29 1191.93 1350.35 1191.46 1349.18 1191.05 1348.18 1190.7 1347.36 1190.34 1346.54 1189.93 1345.66 1189.46 1344.72L1189.46 1344.01 1101.52 1344.01C1101.29 1344.72 1101.05 1345.3 1100.82 1345.77 1100.58 1346.24 1100.46 1346.71 1100.46 1347.18 1100.23 1347.89 1099.99 1348.47 1099.76 1348.94 1099.52 1349.41 1099.29 1349.88 1099.05 1350.35 1098.82 1351.29 1098.52 1352.23 1098.17 1353.17 1097.82 1354.11 1097.4 1355.05 1096.93 1355.99 1096.7 1356.7 1096.4 1357.4 1096.05 1358.1 1095.7 1358.81 1095.4 1359.51 1095.17 1360.22 1094.93 1360.45 1094.76 1360.75 1094.64 1361.1 1094.52 1361.45 1094.46 1361.75 1094.46 1361.98 1094.23 1362.45 1094.05 1362.8 1093.93 1363.04 1093.81 1363.27 1093.75 1363.62 1093.75 1364.09 1093.05 1365.5 1092.52 1366.91 1092.17 1368.32 1091.81 1369.73 1091.4 1371.14 1090.93 1372.55 1090.69 1373.96 1090.46 1375.37 1090.22 1376.78 1089.99 1378.19 1089.87 1379.48 1089.87 1380.65 1089.87 1382.3 1090.16 1383.77 1090.75 1385.06 1091.34 1386.35 1092.34 1387.23 1093.75 1387.7 1094.93 1388.17 1096.87 1388.52 1099.58 1388.76 1102.29 1388.99 1105.64 1389.11 1109.65 1389.11L1119.89 1388.4 1119.89 1418 1015 1418 1015 1388.4C1015.24 1388.64 1015.53 1388.76 1015.88 1388.76 1016.24 1388.76 1016.53 1388.76 1016.77 1388.76 1017 1388.76 1017.3 1388.76 1017.65 1388.76 1018 1388.76 1018.3 1388.76 1018.53 1388.76 1022.3 1388.76 1025.77 1388.52 1028.95 1388.05 1032.13 1387.58 1034.89 1386.88 1037.25 1385.94 1039.84 1384.76 1042.31 1382.77 1044.67 1379.95 1047.02 1377.13 1049.26 1373.49 1051.38 1369.03 1051.85 1367.85 1052.32 1366.74 1052.79 1365.68 1053.26 1364.62 1053.73 1363.62 1054.2 1362.69 1054.44 1362.22 1054.67 1361.75 1054.91 1361.28 1055.14 1360.81 1055.38 1360.22 1055.61 1359.51 1055.85 1359.04 1056.08 1358.57 1056.32 1358.1 1056.56 1357.64 1056.79 1357.17 1057.03 1356.7 1057.03 1356.46 1057.03 1356.28 1057.03 1356.17 1057.03 1356.05 1057.14 1355.87 1057.38 1355.64 1057.38 1355.64 1057.44 1355.58 1057.56 1355.46 1057.67 1355.34 1057.73 1355.17 1057.73 1354.93 1057.73 1354.7 1057.79 1354.46 1057.91 1354.23 1058.03 1353.99 1058.2 1353.76 1058.44 1353.52 1058.91 1352.82 1059.26 1352.17 1059.5 1351.59 1059.73 1351 1060.09 1350.35 1060.56 1349.65 1060.79 1349.18 1061.09 1348.59 1061.44 1347.89 1061.79 1347.18 1062.09 1346.48 1062.32 1345.77 1063.03 1344.6 1063.68 1343.31 1064.27 1341.9 1064.85 1340.49 1065.38 1339.08 1065.86 1337.67L1128.01 1183ZM1142.84 1236.2 1112.83 1313.71 1176.04 1313.71 1142.84 1236.2Z" fill="#DEFBE6" fill-rule="evenodd"/><path d="M1425 1183 1580.41 1183C1593.83 1183.47 1605.61 1185.17 1615.73 1188.11 1625.86 1191.04 1634.33 1195.33 1641.16 1200.97 1647.99 1206.61 1653.17 1213.53 1656.7 1221.76 1660.23 1229.98 1662 1239.61 1662 1250.65 1662 1261.45 1660.18 1270.96 1656.53 1279.18 1652.88 1287.41 1647.4 1294.22 1640.1 1299.62 1632.8 1305.02 1623.56 1309.07 1612.38 1311.77 1601.19 1314.48 1588.18 1315.83 1573.35 1315.83L1520.72 1315.12 1520.72 1372.55C1520.72 1375.84 1521.07 1378.6 1521.78 1380.83 1522.48 1383.06 1523.54 1384.76 1524.96 1385.94 1526.37 1387.11 1528.31 1387.99 1530.78 1388.58 1533.26 1389.17 1536.26 1389.46 1539.79 1389.46L1562.04 1388.76 1562.04 1418 1425 1418 1425 1389.11 1443.37 1389.11C1443.84 1389.34 1444.31 1389.46 1444.78 1389.46 1445.25 1389.46 1445.6 1389.46 1445.84 1389.46 1448.66 1389.46 1451.14 1389.17 1453.26 1388.58 1455.38 1387.99 1457.02 1387.11 1458.2 1385.94 1459.61 1384.76 1460.67 1383.12 1461.38 1381.01 1462.09 1378.89 1462.44 1376.31 1462.44 1373.25L1462.44 1228.8C1462.44 1226.22 1462.09 1223.87 1461.38 1221.76 1460.67 1219.64 1459.61 1218 1458.2 1216.82 1456.79 1215.65 1454.85 1214.71 1452.37 1214 1449.9 1213.3 1446.9 1212.95 1443.37 1212.95L1425 1212.24 1425 1183ZM1520.72 1213.3 1520.72 1284.82 1550.03 1284.82C1550.51 1285.06 1551.04 1285.17 1551.62 1285.17 1552.21 1285.17 1552.62 1285.17 1552.86 1285.17 1560.87 1285.17 1567.81 1284.47 1573.7 1283.06 1579.59 1281.65 1584.53 1279.65 1588.53 1277.07 1592.54 1274.25 1595.6 1270.55 1597.72 1265.97 1599.84 1261.39 1600.9 1256.05 1600.9 1249.94 1600.9 1243.36 1599.84 1237.79 1597.72 1233.21 1595.6 1228.63 1592.54 1224.93 1588.53 1222.11 1584.53 1219.52 1579.06 1217.53 1572.11 1216.12 1565.16 1214.71 1556.75 1214 1546.86 1214L1520.72 1213.3Z" fill="#DEFBE6" fill-rule="evenodd"/><path d="M1925.5 1210 1947 1210 1947 1212.01 1925.37 1212.01C1921.77 1212.5 1918.7 1213.1 1916.18 1213.82 1913.66 1214.54 1911.68 1215.5 1910.23 1216.7 1908.79 1217.9 1907.71 1219.58 1906.99 1221.74L1906 1229 1906 1227.68C1906 1224.55 1906.36 1221.91 1907.08 1219.74 1907.81 1217.58 1908.89 1215.89 1910.33 1214.69 1911.78 1213.49 1913.76 1212.53 1916.29 1211.8 1918.82 1211.08 1921.89 1210.48 1925.5 1210Z" fill="#24A148" fill-rule="evenodd"/><path d="M1811 1210 1829.12 1210.68C1832.62 1210.68 1835.59 1211.03 1838.03 1211.71 1840.48 1212.4 1842.41 1213.32 1843.8 1214.46 1845.2 1215.61 1846.25 1217.21 1846.95 1219.27 1847.65 1221.33 1848 1223.62 1848 1226.13L1848 1228 1846.96 1221.17C1846.26 1219.11 1845.21 1217.51 1843.81 1216.37 1842.42 1215.23 1840.5 1214.31 1838.05 1213.63 1835.61 1212.94 1832.64 1212.6 1829.15 1212.6L1811 1211.91 1811 1210Z" fill="#24A148" fill-rule="evenodd"/><path d="M1848 1228 1848 1228.03 1848 1373.57C1848 1376.65 1847.64 1379.25 1846.93 1381.38 1846.21 1383.51 1845.14 1385.17 1843.71 1386.35 1842.51 1387.53 1840.84 1388.42 1838.69 1389.01 1836.55 1389.6 1834.04 1389.9 1831.18 1389.9 1830.94 1389.9 1830.58 1389.9 1830.11 1389.9 1829.63 1389.9 1829.15 1389.78 1828.67 1389.54L1810.06 1389.54 1810.06 1417 1810 1417 1810 1387.84 1828.64 1387.84C1829.12 1388.08 1829.6 1388.2 1830.07 1388.2 1830.55 1388.2 1830.91 1388.2 1831.15 1388.2 1834.02 1388.2 1836.53 1387.9 1838.68 1387.31 1840.83 1386.72 1842.5 1385.83 1843.69 1384.64 1845.13 1383.46 1846.2 1381.8 1846.92 1379.67 1847.64 1377.53 1848 1374.93 1848 1371.84L1848 1228Z" fill="#24A148" fill-rule="evenodd"/><path d="M1906.09 1229 1906.09 1386.23 1954.88 1386.23C1967.37 1386.7 1977.33 1385.17 1984.76 1381.64 1992.18 1378.11 1997.31 1372.81 2000.14 1365.75L2006 1342.67 2005.9 1343.86C2004.48 1352.55 2002.48 1360.42 1999.9 1367.47 1997.07 1374.52 1991.95 1379.81 1984.54 1383.33 1977.13 1386.86 1967.18 1388.39 1954.71 1387.92L1906 1387.92 1906 1229.65 1906.09 1229Z" fill="#24A148" fill-rule="evenodd"/><path d="M2043 1313 2043 1417 2042.69 1417 2042.69 1314.82 2009 1315.52 2009.16 1313.71 2043 1313Z" fill="#24A148" fill-rule="evenodd"/><path d="M2009 1315 2006.18 1342.41 2006 1343 2008.88 1315 2009 1315Z" fill="#24A148" fill-rule="evenodd"/><path d="M1811 1417 2042 1417 2042 1418 1811 1418 1811 1417Z" fill="#24A148" fill-rule="evenodd"/><path d="M1271.2 636 1439.5 636C1451.68 636 1459.38 640.728 1462.58 650.185 1464.94 657.139 1457.29 738.077 1439.64 893 1319.79 737.798 1258.83 657.139 1256.75 651.019 1255.16 646.291 1256.1 642.536 1259.59 639.755 1262.62 637.251 1266.49 636 1271.2 636Z" fill="#24A148" fill-rule="evenodd"/><path d="M1842.5 789.256C1990.2 795.299 2075.07 907.505 2106.31 1054.98L2110 1077 1758 1077 1758 796.646 1762.36 795.6C1790.89 790.238 1817.59 788.237 1842.5 789.256Z" fill="#24A148" fill-rule="evenodd"/><path d="M1707 810 1707 1077 1374 1077 1374 899.244 1386.08 905.011C1407.82 916.086 1430.47 928.987 1454.04 943.826 1534.07 886.673 1606.23 847.037 1670.87 822.2L1707 810Z" fill="#24A148" fill-rule="evenodd"/><path d="M1190.81 851.055C1222.15 850.408 1256.85 855.483 1295.06 867.182L1324 877.085 1324 1077 968 1077 976.178 1041.75C1007.4 931.441 1076.83 853.408 1190.81 851.055Z" fill="#24A148" fill-rule="evenodd"/><path d="M960.547 1128 1324 1128 1324 1467 1003.78 1467 991.206 1427.99C962.074 1328.89 950.861 1223.51 960.232 1130.24L960.547 1128ZM1128.01 1182.36 1065.74 1337.82C1065.27 1339.23 1064.74 1340.65 1064.15 1342.06 1063.56 1343.48 1062.91 1344.78 1062.2 1345.96 1061.96 1346.67 1061.67 1347.38 1061.32 1348.08 1060.96 1348.79 1060.67 1349.38 1060.43 1349.86 1059.96 1350.56 1059.61 1351.21 1059.37 1351.8 1059.13 1352.39 1058.78 1353.04 1058.31 1353.75 1058.07 1353.99 1057.9 1354.22 1057.78 1354.46 1057.66 1354.69 1057.6 1354.93 1057.6 1355.17 1057.6 1355.4 1057.54 1355.58 1057.42 1355.7 1057.31 1355.82 1057.25 1355.88 1057.25 1355.88 1057.01 1356.11 1056.89 1356.29 1056.89 1356.41 1056.89 1356.52 1056.89 1356.7 1056.89 1356.94 1056.66 1357.41 1056.42 1357.88 1056.19 1358.35 1055.95 1358.83 1055.71 1359.3 1055.48 1359.77 1055.24 1360.48 1055.01 1361.07 1054.77 1361.54 1054.53 1362.01 1054.3 1362.49 1054.06 1362.96 1053.59 1363.9 1053.12 1364.91 1052.65 1365.97 1052.18 1367.03 1051.7 1368.15 1051.23 1369.33 1049.11 1373.82 1046.87 1377.48 1044.51 1380.31 1042.15 1383.14 1039.68 1385.15 1037.08 1386.33 1034.72 1387.27 1031.95 1387.98 1028.77 1388.45 1025.58 1388.93 1022.1 1389.16 1018.33 1389.16 1018.09 1389.16 1017.8 1389.16 1017.45 1389.16 1017.09 1389.16 1016.8 1389.16 1016.56 1389.16 1016.33 1389.16 1016.03 1389.16 1015.68 1389.16 1015.32 1389.16 1015.03 1389.04 1014.79 1388.81L1014.79 1418.55 1119.87 1418.55 1119.87 1388.81 1109.61 1389.52C1105.6 1389.52 1102.24 1389.4 1099.53 1389.16 1096.81 1388.93 1094.87 1388.57 1093.69 1388.1 1092.27 1387.63 1091.27 1386.74 1090.68 1385.44 1090.09 1384.15 1089.8 1382.67 1089.8 1381.02 1089.8 1379.84 1089.91 1378.54 1090.15 1377.12 1090.39 1375.71 1090.62 1374.29 1090.86 1372.87 1091.33 1371.46 1091.74 1370.04 1092.1 1368.62 1092.45 1367.21 1092.98 1365.79 1093.69 1364.37 1093.69 1363.9 1093.75 1363.55 1093.86 1363.31 1093.98 1363.08 1094.16 1362.72 1094.4 1362.25 1094.4 1362.01 1094.45 1361.72 1094.57 1361.36 1094.69 1361.01 1094.87 1360.71 1095.1 1360.48 1095.34 1359.77 1095.63 1359.06 1095.99 1358.35 1096.34 1357.65 1096.64 1356.94 1096.87 1356.23 1097.34 1355.29 1097.76 1354.34 1098.11 1353.4 1098.46 1352.45 1098.76 1351.51 1098.99 1350.56 1099.23 1350.09 1099.47 1349.62 1099.7 1349.15 1099.94 1348.68 1100.17 1348.08 1100.41 1347.38 1100.41 1346.9 1100.53 1346.43 1100.76 1345.96 1101 1345.49 1101.23 1344.9 1101.47 1344.19L1189.56 1344.19 1189.56 1344.9C1190.04 1345.84 1190.45 1346.73 1190.8 1347.55 1191.16 1348.38 1191.57 1349.38 1192.04 1350.56 1192.51 1351.51 1192.98 1352.51 1193.46 1353.57 1193.93 1354.64 1194.4 1355.76 1194.87 1356.94 1195.11 1357.65 1195.34 1358.24 1195.58 1358.71 1195.81 1359.18 1196.05 1359.65 1196.29 1360.12 1196.52 1360.6 1196.76 1361.07 1196.99 1361.54 1197.23 1362.01 1197.47 1362.49 1197.7 1362.96 1198.17 1364.61 1198.7 1366.2 1199.29 1367.74 1199.88 1369.27 1200.41 1370.75 1200.89 1372.16 1201.36 1373.82 1201.71 1375.29 1201.95 1376.59 1202.18 1377.89 1202.3 1379.13 1202.3 1380.31 1202.3 1381.96 1201.89 1383.38 1201.06 1384.56 1200.24 1385.74 1199 1386.68 1197.35 1387.39 1195.93 1387.86 1194.28 1388.28 1192.39 1388.63 1190.51 1388.98 1188.27 1389.16 1185.67 1389.16 1185.44 1389.16 1185.14 1389.16 1184.79 1389.16 1184.43 1389.16 1184.14 1389.16 1183.9 1389.16 1183.43 1389.16 1183.08 1389.16 1182.84 1389.16 1182.61 1389.16 1182.25 1389.04 1181.78 1388.81L1169.4 1388.81 1169.4 1418.55 1300.3 1418.55 1300.3 1389.52C1294.64 1389.52 1289.86 1389.16 1285.97 1388.45 1282.08 1387.75 1278.84 1386.56 1276.24 1384.91 1273.88 1383.5 1271.58 1381.49 1269.34 1378.89 1267.1 1376.3 1265.04 1373.23 1263.15 1369.69 1262.92 1369.21 1262.62 1368.68 1262.27 1368.09 1261.91 1367.5 1261.62 1366.85 1261.38 1366.14 1260.91 1365.44 1260.56 1364.73 1260.32 1364.02 1260.09 1363.31 1259.73 1362.6 1259.26 1361.9 1259.03 1361.19 1258.73 1360.48 1258.38 1359.77 1258.02 1359.06 1257.73 1358.24 1257.49 1357.29 1257.02 1356.58 1256.67 1355.82 1256.43 1354.99 1256.19 1354.16 1255.84 1353.16 1255.37 1351.98L1181.78 1182.36 1128.01 1182.36Z" fill="#24A148" fill-rule="evenodd"/><path d="M1374 1128 1707 1128 1707 1467 1374 1467 1374 1128ZM1424.25 1182.36 1424.25 1211.75 1442.65 1212.46C1446.19 1212.46 1449.2 1212.81 1451.68 1213.52 1454.16 1214.23 1456.1 1215.18 1457.52 1216.36 1458.93 1217.54 1460 1219.19 1460.7 1221.31 1461.41 1223.44 1461.77 1225.8 1461.77 1228.4L1461.77 1373.58C1461.77 1376.65 1461.41 1379.25 1460.7 1381.37 1460 1383.5 1458.93 1385.15 1457.52 1386.33 1456.34 1387.51 1454.69 1388.39 1452.56 1388.98 1450.44 1389.57 1447.96 1389.87 1445.13 1389.87 1444.9 1389.87 1444.54 1389.87 1444.07 1389.87 1443.6 1389.87 1443.13 1389.75 1442.65 1389.52L1424.25 1389.52 1424.25 1418.55 1561.57 1418.55 1561.57 1389.16 1539.28 1389.87C1535.74 1389.87 1532.73 1389.57 1530.25 1388.98 1527.77 1388.39 1525.83 1387.51 1524.41 1386.33 1523 1385.15 1521.93 1383.44 1521.23 1381.19 1520.52 1378.95 1520.16 1376.18 1520.16 1372.87L1520.16 1315.15 1572.9 1315.86C1587.77 1315.86 1600.8 1314.5 1612.01 1311.79 1623.22 1309.07 1632.48 1305 1639.79 1299.57 1647.11 1294.14 1652.59 1287.3 1656.25 1279.03 1659.91 1270.77 1661.74 1261.21 1661.74 1250.35 1661.74 1239.25 1659.97 1229.58 1656.43 1221.31 1652.89 1213.05 1647.7 1206.09 1640.85 1200.42 1634.01 1194.75 1625.52 1190.45 1615.37 1187.5 1605.23 1184.54 1593.43 1182.83 1579.98 1182.36L1424.25 1182.36Z" fill="#24A148" fill-rule="evenodd"/><path d="M1758 1128 2116.49 1128 2119.1 1158.2C2123.46 1247.27 2111.92 1342.39 2086.03 1431.35L2074.61 1467 1758 1467 1758 1128ZM1810.64 1180.33 1810.64 1209.77 1810.7 1209.77 1810.7 1211.75 1829.05 1212.46C1832.58 1212.46 1835.58 1212.81 1838.05 1213.52 1840.52 1214.23 1842.46 1215.18 1843.87 1216.36 1845.28 1217.54 1846.34 1219.19 1847.05 1221.31L1848.1 1228.37 1848.1 1371.86C1848.1 1374.93 1847.75 1377.53 1847.04 1379.66 1846.34 1381.79 1845.27 1383.45 1843.86 1384.63 1842.68 1385.81 1841.03 1386.7 1838.91 1387.29 1836.79 1387.88 1834.32 1388.18 1831.49 1388.18 1831.26 1388.18 1830.9 1388.18 1830.43 1388.18 1829.96 1388.18 1829.49 1388.06 1829.02 1387.82L1810.64 1387.82 1810.64 1416.9 1810.7 1416.9 1810.7 1418.55 2042.18 1418.55 2042.18 1416.9 2042.49 1416.9 2042.49 1312.98 2008.91 1313.69 2008.75 1315.5 2008.66 1315.51 2006.29 1342.64 2000.43 1365.83C1997.6 1372.92 1992.48 1378.24 1985.06 1381.79 1977.63 1385.34 1967.68 1386.87 1955.19 1386.4L1906.42 1386.4 1906.42 1228.45 1907.39 1221.31C1908.09 1219.19 1909.15 1217.54 1910.56 1216.36 1911.97 1215.18 1913.91 1214.23 1916.38 1213.52 1918.85 1212.81 1921.85 1212.22 1925.38 1211.75L1946.55 1211.75 1946.55 1209.77 1946.71 1209.77 1946.71 1180.33 1810.64 1180.33Z" fill="#24A148" fill-rule="evenodd"/><path d="M2345.04 1174C2352.14 1174 2358.9 1174.47 2365.3 1175.41 2371.69 1176.36 2377.74 1177.77 2383.42 1179.66 2388.87 1181.31 2394.21 1183.67 2399.42 1186.73 2404.63 1189.79 2409.61 1193.33 2414.35 1197.34L2419.68 1180.72 2447.4 1180.72 2447.4 1265.58 2414.35 1265.58C2414.11 1265.58 2413.99 1265.53 2413.99 1265.41 2413.99 1265.29 2413.99 1265.11 2413.99 1264.88 2413.99 1264.64 2413.99 1264.46 2413.99 1264.35 2413.99 1264.23 2413.99 1264.05 2413.99 1263.82 2413.99 1263.82 2413.99 1263.76 2413.99 1263.64 2413.99 1263.52 2413.99 1263.34 2413.99 1263.11 2413.75 1261.93 2413.52 1260.75 2413.28 1259.57 2413.04 1258.39 2412.93 1257.22 2412.93 1256.04 2412.69 1255.09 2412.45 1254.15 2412.21 1253.21 2411.98 1252.27 2411.74 1251.32 2411.5 1250.38 2411.27 1248.49 2410.79 1246.78 2410.08 1245.25 2409.37 1243.72 2408.66 1242.13 2407.95 1240.48 2407.71 1240.01 2407.42 1239.48 2407.06 1238.89 2406.71 1238.3 2406.29 1237.65 2405.82 1236.94 2405.58 1236.47 2405.34 1236.06 2405.11 1235.7 2404.87 1235.35 2404.75 1235.06 2404.75 1234.82 2404.51 1234.35 2404.28 1233.94 2404.04 1233.58 2403.8 1233.23 2403.57 1232.93 2403.33 1232.7 2400.48 1228.69 2397.17 1225.1 2393.38 1221.91 2389.58 1218.73 2385.32 1215.84 2380.58 1213.25 2375.84 1210.66 2370.98 1208.59 2366.01 1207.06 2361.03 1205.53 2355.94 1204.65 2350.72 1204.41 2350.49 1204.41 2350.19 1204.41 2349.83 1204.41 2349.48 1204.41 2349.06 1204.41 2348.59 1204.41 2348.35 1204.41 2348.18 1204.41 2348.06 1204.41 2347.94 1204.41 2347.88 1204.41 2347.88 1204.41 2347.64 1204.41 2347.47 1204.41 2347.35 1204.41 2347.23 1204.41 2347.05 1204.41 2346.81 1204.41 2339.7 1204.41 2333.25 1205.18 2327.44 1206.71 2321.64 1208.24 2316.48 1210.42 2311.98 1213.25 2307.48 1216.08 2304.16 1219.38 2302.03 1223.15 2299.89 1226.92 2298.83 1231.17 2298.83 1235.88 2298.83 1241.07 2300.19 1245.49 2302.92 1249.14 2305.64 1252.8 2309.73 1255.68 2315.18 1257.8 2320.63 1259.93 2326.67 1261.87 2333.31 1263.64 2339.94 1265.41 2347.05 1267 2354.63 1268.41 2356.53 1268.65 2358.42 1268.94 2360.32 1269.3 2362.22 1269.65 2364.11 1270.06 2366.01 1270.53 2366.95 1270.77 2367.9 1271.01 2368.85 1271.24 2369.8 1271.48 2370.86 1271.6 2372.05 1271.6 2373 1271.83 2374 1272.07 2375.07 1272.3 2376.14 1272.54 2377.14 1272.77 2378.09 1273.01 2387.81 1275.13 2397.23 1277.96 2406.35 1281.5 2415.47 1285.03 2424.06 1289.16 2432.12 1293.87 2440.41 1298.59 2446.63 1305.19 2450.78 1313.67 2454.93 1322.16 2457 1332.53 2457 1344.79 2457 1357.76 2454.87 1369.13 2450.6 1378.92 2446.34 1388.7 2440.06 1397.01 2431.76 1403.84 2423.23 1410.45 2412.98 1415.45 2401.02 1418.87 2389.05 1422.29 2375.25 1424 2359.61 1424 2358.9 1424 2358.25 1424 2357.65 1424 2357.06 1424 2356.53 1424 2356.05 1424 2355.82 1424 2355.52 1424 2355.17 1424 2354.81 1424 2354.51 1424 2354.28 1424 2353.8 1423.76 2353.45 1423.65 2353.21 1423.65 2352.97 1423.65 2352.74 1423.65 2352.5 1423.65 2346.1 1423.41 2339.88 1422.7 2333.84 1421.53 2327.8 1420.35 2321.7 1418.7 2315.53 1416.57 2309.61 1414.69 2303.98 1412.21 2298.65 1409.15 2293.32 1406.08 2288.28 1402.43 2283.54 1398.19L2276.08 1416.57 2248 1416.57 2248 1328.88 2281.41 1328.88C2281.89 1331.47 2282.42 1333.83 2283.01 1335.95 2283.6 1338.07 2284.02 1339.96 2284.26 1341.61 2284.49 1342.32 2284.73 1343.08 2284.97 1343.91 2285.2 1344.73 2285.44 1345.5 2285.68 1346.21 2285.68 1346.91 2285.8 1347.56 2286.03 1348.15 2286.27 1348.74 2286.51 1349.27 2286.74 1349.74 2287.22 1350.92 2287.63 1352.04 2287.99 1353.1 2288.34 1354.16 2288.64 1355.05 2288.88 1355.75 2289.35 1356.7 2289.82 1357.52 2290.3 1358.23 2290.77 1358.94 2291.25 1359.64 2291.72 1360.35 2291.96 1360.82 2292.19 1361.23 2292.43 1361.59 2292.67 1361.94 2292.9 1362.35 2293.14 1362.83 2293.38 1363.06 2293.56 1363.3 2293.67 1363.53 2293.79 1363.77 2293.97 1363.89 2294.21 1363.89 2294.44 1364.12 2294.62 1364.36 2294.74 1364.59 2294.86 1364.83 2295.04 1365.07 2295.27 1365.3 2298.12 1369.07 2301.73 1372.55 2306.12 1375.73 2310.5 1378.92 2315.65 1381.8 2321.58 1384.4 2327.26 1386.75 2333.19 1388.58 2339.35 1389.88 2345.51 1391.17 2351.79 1391.82 2358.19 1391.82 2364.82 1391.82 2370.81 1391.11 2376.14 1389.7 2381.47 1388.29 2386.27 1386.16 2390.53 1383.34 2394.8 1380.51 2398 1377.27 2400.13 1373.61 2402.26 1369.96 2403.33 1365.89 2403.33 1361.41 2403.33 1358.11 2402.97 1355.28 2402.26 1352.93 2401.55 1350.57 2400.6 1348.56 2399.42 1346.91 2398 1345.03 2395.92 1343.32 2393.2 1341.79 2390.47 1340.25 2386.98 1338.78 2382.71 1337.37 2381.05 1336.9 2379.16 1336.36 2377.03 1335.78 2374.89 1335.19 2372.64 1334.54 2370.27 1333.83 2367.9 1333.36 2365.41 1332.77 2362.81 1332.06 2360.2 1331.36 2357.48 1330.65 2354.63 1329.94L2318.73 1320.75C2308.54 1318.86 2299.3 1316.27 2291.01 1312.97 2282.72 1309.67 2275.25 1305.78 2268.62 1301.3 2261.98 1296.82 2257 1290.51 2253.69 1282.38 2250.37 1274.25 2248.71 1264.41 2248.71 1252.85 2248.71 1240.83 2250.84 1229.99 2255.11 1220.32 2259.37 1210.66 2265.89 1202.29 2274.66 1195.22 2283.43 1188.14 2293.67 1182.84 2305.4 1179.3 2317.13 1175.77 2330.34 1174 2345.04 1174Z" fill="#24A148" fill-rule="evenodd"/><path d="M2913.53 1174C2933.14 1174 2950.86 1176.83 2966.69 1182.49 2982.51 1188.14 2996.45 1196.63 3008.5 1207.95 3020.55 1219.26 3029.64 1232.29 3035.79 1247.02 3041.93 1261.75 3045 1278.2 3045 1296.35 3045 1316.62 3042.05 1334.66 3036.14 1350.45 3030.23 1366.24 3021.38 1379.68 3009.56 1390.76 2997.99 1402.08 2983.93 1410.45 2967.39 1415.87 2950.86 1421.29 2932.08 1424 2911.05 1424 2890.97 1424 2873.08 1421.29 2857.37 1415.87 2841.65 1410.45 2827.89 1402.19 2816.08 1391.11 2804.51 1380.04 2795.77 1366.89 2789.86 1351.69 2783.95 1336.48 2781 1319.33 2781 1300.24L2781 1299.53C2781 1280.44 2783.95 1263.23 2789.86 1247.9 2795.77 1232.58 2804.74 1219.26 2816.79 1207.95 2828.6 1196.63 2842.6 1188.14 2858.78 1182.49 2874.97 1176.83 2893.21 1174 2913.53 1174ZM2913.89 1204.41C2903.02 1204.41 2893.33 1206.53 2884.83 1210.78 2876.32 1215.02 2869 1221.27 2862.86 1229.52 2856.95 1237.77 2852.46 1247.67 2849.39 1259.22 2847.86 1264.99 2846.7 1271.15 2845.94 1277.7L2844.8 1298.14 2845.85 1319.47C2846.56 1326.27 2847.62 1332.65 2849.04 1338.6 2851.87 1350.51 2856.24 1360.59 2862.15 1368.84 2868.05 1377.32 2875.14 1383.63 2883.41 1387.76 2891.68 1391.88 2901.13 1393.94 2911.76 1393.94 2922.63 1393.94 2932.25 1391.94 2940.64 1387.93 2949.03 1383.92 2956.17 1377.91 2962.08 1369.9 2968.22 1361.65 2972.77 1351.81 2975.72 1340.37 2978.68 1328.94 2980.15 1315.8 2980.15 1300.94 2980.15 1285.62 2978.68 1272.07 2975.72 1260.28 2972.77 1248.49 2968.46 1238.36 2962.79 1229.87 2956.88 1221.38 2949.85 1215.02 2941.7 1210.78 2933.55 1206.53 2924.28 1204.41 2913.89 1204.41Z" fill="#24A148" fill-rule="evenodd"/><path d="M2477 1181 2607.26 1181 2607.26 1210.37 2592.04 1210.37C2588.5 1210.84 2585.49 1211.43 2583.01 1212.14 2580.53 1212.84 2578.59 1213.79 2577.17 1214.97 2575.75 1216.15 2574.69 1217.8 2573.98 1219.92 2573.28 1222.04 2572.92 1224.64 2572.92 1227.7L2572.92 1278.3 2667.08 1278.3 2667.08 1227C2667.08 1224.4 2666.72 1222.04 2666.01 1219.92 2665.31 1217.8 2664.25 1216.15 2662.83 1214.97 2661.41 1213.79 2659.47 1212.84 2656.99 1212.14 2654.51 1211.43 2651.5 1211.07 2647.96 1211.07L2632.74 1210.37 2632.74 1181 2763 1181 2763 1210.37 2744.59 1210.37C2741.05 1210.84 2738.05 1211.43 2735.57 1212.14 2733.09 1212.84 2731.14 1213.79 2729.73 1214.97 2728.31 1216.15 2727.25 1217.8 2726.54 1219.92 2725.83 1222.04 2725.48 1224.64 2725.48 1227.7L2725.48 1371.36C2725.48 1374.66 2725.83 1377.43 2726.54 1379.67 2727.25 1381.91 2728.31 1383.62 2729.73 1384.8 2731.14 1386.22 2733.09 1387.22 2735.57 1387.81 2738.05 1388.4 2741.05 1388.69 2744.59 1388.69L2763 1387.99 2763 1417 2632.74 1417 2632.74 1387.99 2647.96 1387.99C2648.43 1388.22 2648.91 1388.34 2649.38 1388.34 2649.85 1388.34 2650.2 1388.34 2650.44 1388.34 2653.27 1388.34 2655.75 1388.05 2657.87 1387.46 2660 1386.87 2661.65 1385.98 2662.83 1384.8 2664.25 1383.62 2665.31 1381.97 2666.01 1379.85 2666.72 1377.73 2667.08 1375.13 2667.08 1372.06L2667.08 1310.5 2572.92 1310.5 2572.92 1371.36C2572.92 1374.66 2573.28 1377.43 2573.98 1379.67 2574.69 1381.91 2575.75 1383.62 2577.17 1384.8 2578.59 1386.22 2580.53 1387.22 2583.01 1387.81 2585.49 1388.4 2588.5 1388.69 2592.04 1388.69L2607.26 1387.99 2607.26 1417 2477 1417 2477 1387.99 2495.41 1387.99C2495.88 1388.22 2496.35 1388.34 2496.82 1388.34 2497.29 1388.34 2497.65 1388.34 2497.88 1388.34 2500.72 1388.34 2503.19 1388.05 2505.32 1387.46 2507.44 1386.87 2509.09 1385.98 2510.27 1384.8 2511.69 1383.62 2512.75 1381.97 2513.46 1379.85 2514.17 1377.73 2514.52 1375.13 2514.52 1372.06L2514.52 1227C2514.52 1224.4 2514.17 1222.04 2513.46 1219.92 2512.75 1217.8 2511.69 1216.15 2510.27 1214.97 2508.86 1213.79 2506.91 1212.84 2504.43 1212.14 2501.95 1211.43 2498.95 1211.07 2495.41 1211.07L2477 1210.37 2477 1181Z" fill="#24A148" fill-rule="evenodd"/><path d="M3056 1181 3171.07 1181 3171.07 1211.43 3157.97 1211.43C3155.14 1211.9 3152.84 1212.31 3151.07 1212.67 3149.3 1213.02 3147.94 1213.43 3147 1213.91 3146.05 1214.61 3145.34 1215.5 3144.87 1216.56 3144.4 1217.62 3144.16 1218.98 3144.16 1220.63 3144.16 1221.1 3144.16 1221.69 3144.16 1222.4 3144.16 1223.11 3144.28 1223.81 3144.52 1224.52 3144.75 1225.23 3145.11 1226.29 3145.58 1227.7 3146.05 1229.12 3146.64 1230.77 3147.35 1232.66L3183.46 1341.99 3223.12 1232.66C3222.88 1232.42 3222.65 1232.07 3222.41 1231.6 3222.18 1231.12 3221.94 1230.54 3221.7 1229.83 3221.47 1229.12 3221.23 1228.47 3221 1227.88 3220.76 1227.29 3220.64 1226.76 3220.64 1226.29 3219.7 1224.17 3218.63 1222.22 3217.45 1220.45 3216.27 1218.68 3215.09 1217.21 3213.91 1216.03 3212.73 1214.85 3211.02 1213.91 3208.78 1213.2 3206.54 1212.49 3203.76 1212.14 3200.46 1212.14L3190.9 1211.43 3190.9 1181 3314.11 1181 3314.11 1211.43 3301.37 1211.43C3297.59 1211.9 3294.46 1212.31 3291.99 1212.67 3289.51 1213.02 3287.68 1213.55 3286.5 1214.26 3285.32 1214.97 3284.43 1215.91 3283.84 1217.09 3283.25 1218.27 3282.96 1219.8 3282.96 1221.69 3282.96 1222.16 3282.96 1222.75 3282.96 1223.46 3282.96 1224.17 3283.07 1224.99 3283.31 1225.94 3283.55 1226.88 3283.84 1227.88 3284.2 1228.94 3284.55 1230 3284.96 1231.24 3285.44 1232.66L3322.61 1341.99 3359.44 1231.95C3359.91 1231.01 3360.32 1230.06 3360.67 1229.12 3361.03 1228.18 3361.32 1227.23 3361.56 1226.29 3361.8 1225.35 3361.97 1224.52 3362.09 1223.81 3362.21 1223.11 3362.27 1222.4 3362.27 1221.69 3362.27 1219.8 3362.03 1218.21 3361.56 1216.91 3361.09 1215.62 3360.26 1214.61 3359.08 1213.91 3358.14 1213.43 3356.37 1213.02 3353.77 1212.67 3351.17 1212.31 3347.87 1212.14 3343.86 1212.14L3333.94 1211.43 3333.94 1181 3426 1181 3426 1211.43 3421.4 1211.43C3419.27 1211.9 3417.38 1212.31 3415.73 1212.67 3414.08 1213.02 3412.66 1213.55 3411.48 1214.26 3410.3 1214.97 3409.12 1216.03 3407.94 1217.44 3406.76 1218.86 3405.58 1220.63 3404.4 1222.75 3403.93 1223.69 3403.4 1224.76 3402.81 1225.94 3402.22 1227.11 3401.69 1228.41 3401.22 1229.83 3400.51 1231.24 3399.86 1232.66 3399.27 1234.07 3398.68 1235.49 3398.15 1237.14 3397.67 1239.03L3333.94 1417 3288.62 1417 3243.3 1283.96 3195.5 1417 3149.12 1417 3086.45 1238.32C3086.21 1237.85 3085.92 1237.26 3085.56 1236.55 3085.21 1235.84 3084.8 1235.13 3084.33 1234.43 3084.09 1233.96 3083.91 1233.54 3083.79 1233.19 3083.68 1232.83 3083.62 1232.42 3083.62 1231.95 3083.38 1231.71 3083.2 1231.36 3083.09 1230.89 3082.97 1230.42 3082.91 1230.06 3082.91 1229.83 3081.49 1226.76 3080.08 1224.11 3078.66 1221.87 3077.24 1219.63 3075.59 1217.8 3073.7 1216.38 3072.05 1214.97 3069.69 1213.91 3066.62 1213.2 3063.55 1212.49 3060.01 1212.14 3056 1212.14L3056 1181Z" fill="#24A148" fill-rule="evenodd"/><path d="M1811 1183 1946.57 1183 1946.57 1210.35 1925.56 1210.35C1922.04 1210.82 1919.04 1211.41 1916.57 1212.12 1914.1 1212.82 1912.16 1213.77 1910.75 1214.95 1909.34 1216.13 1908.28 1217.78 1907.58 1219.9 1906.87 1222.02 1906.52 1224.62 1906.52 1227.69L1906.52 1228.98 1906.43 1229.63 1906.43 1388.26 1955.02 1388.26C1967.46 1388.73 1977.38 1387.2 1984.78 1383.67 1992.17 1380.14 1997.28 1374.84 2000.1 1367.77 2002.68 1360.71 2004.67 1352.81 2006.08 1344.1L2006.19 1342.91 2006.33 1342.34 2008.64 1315.84 2042 1315.13 2042 1417 1811 1417 1811 1389.68 1829.31 1389.68C1829.78 1389.91 1830.25 1390.03 1830.72 1390.03 1831.19 1390.03 1831.54 1390.03 1831.78 1390.03 1834.59 1390.03 1837.06 1389.73 1839.17 1389.15 1841.28 1388.56 1842.93 1387.67 1844.1 1386.5 1845.51 1385.32 1846.57 1383.67 1847.27 1381.55 1847.97 1379.43 1848.33 1376.84 1848.33 1373.78L1848.33 1228.93 1848.32 1228.9 1848.32 1226.98C1848.32 1224.38 1847.97 1222.02 1847.26 1219.9 1846.56 1217.78 1845.5 1216.13 1844.09 1214.95 1842.68 1213.77 1840.74 1212.82 1838.27 1212.12 1835.8 1211.41 1832.8 1211.05 1829.28 1211.05L1811 1210.35 1811 1183Z" fill="#DEFBE6" fill-rule="evenodd"/><path d="M1520 1213 1546.41 1213.71C1556.4 1213.71 1564.9 1214.41 1571.92 1215.82 1578.94 1217.24 1584.47 1219.24 1588.51 1221.82 1592.55 1224.65 1595.65 1228.35 1597.79 1232.94 1599.93 1237.53 1601 1243.12 1601 1249.71 1601 1255.82 1599.93 1261.18 1597.79 1265.76 1595.65 1270.35 1592.55 1274.06 1588.51 1276.88 1584.47 1279.47 1579.47 1281.47 1573.52 1282.88 1567.58 1284.29 1560.56 1285 1552.47 1285 1552.23 1285 1551.82 1285 1551.22 1285 1550.63 1285 1550.09 1284.88 1549.62 1284.65L1520 1284.65 1520 1213Z" fill="#24A148" fill-rule="evenodd"/><path d="M1142.92 1236 1176 1314 1113 1314 1142.92 1236Z" fill="#24A148" fill-rule="evenodd"/><path d="M2155 1359C2159 1359.47 2162.76 1360.47 2166.29 1362 2169.82 1363.53 2173.12 1365.71 2176.18 1368.53 2179 1371.59 2181.18 1374.88 2182.71 1378.41 2184.23 1381.94 2185 1385.71 2185 1389.71 2185 1393.94 2184.23 1397.82 2182.71 1401.35 2181.18 1404.88 2179 1408.06 2176.18 1410.88 2173.12 1413.71 2169.82 1415.76 2166.29 1417.06 2162.76 1418.35 2159 1419 2155 1419 2150.76 1419 2146.88 1418.35 2143.35 1417.06 2139.82 1415.76 2136.65 1413.71 2133.82 1410.88 2130.76 1408.06 2128.53 1404.88 2127.12 1401.35 2125.71 1397.82 2125 1393.94 2125 1389.71 2125 1385.71 2125.71 1381.94 2127.12 1378.41 2128.53 1374.88 2130.76 1371.59 2133.82 1368.53 2136.65 1365.71 2139.82 1363.53 2143.35 1362 2146.88 1360.47 2150.76 1359.71 2155 1359.71L2155 1359Z" fill="#24A148" fill-rule="evenodd"/><path d="M1023 1518 1324 1518 1324 1796 1313.41 1794.64C1192.94 1773.82 1098.25 1674.87 1036.72 1548.41L1023 1518Z" fill="#24A148" fill-rule="evenodd"/><path d="M1374 1518 1707 1518 1707 1797.66 1702.37 1797.67C1671.86 1796.58 1639.91 1790.96 1606.59 1780.21 1534 1756.8 1533.65 1756.4 1465.34 1780.02 1438.05 1789.45 1411.64 1795.13 1386.16 1797.43L1374 1798 1374 1518Z" fill="#24A148" fill-rule="evenodd"/><path d="M1758 1518 2056 1518 2039.7 1553.78C1983 1668.75 1898.07 1758.92 1789.63 1788L1758 1794 1758 1518Z" fill="#24A148" fill-rule="evenodd"/></g></svg>